<?xml version="1.0" encoding="UTF-8" standalone="no"?>
<svg
   version="1.1"
   width="720"
   height="500"
   id="svg50"
   sodipodi:docname="routemapster.svg"
   inkscape:version="1.4 (86a8ad7, 2024-10-11)"
   xmlns:inkscape="http://www.inkscape.org/namespaces/inkscape"
   xmlns:sodipodi="http://sodipodi.sourceforge.net/DTD/sodipodi-0.dtd"
   xmlns="http://www.w3.org/2000/svg"
   xmlns:svg="http://www.w3.org/2000/svg">
  <defs
     id="defs50">
    <rect
       x="608.11182"
       y="597.50525"
       width="262.33661"
       height="136.4716"
       id="rect51" />
    <rect
       x="396.63858"
       y="575.36652"
       width="279.77798"
       height="77.677917"
       id="rect50" />
  </defs>
  <sodipodi:namedview
     id="namedview50"
     pagecolor="#ffffff"
     bordercolor="#666666"
     borderopacity="1.0"
     inkscape:showpageshadow="2"
     inkscape:pageopacity="0.0"
     inkscape:pagecheckerboard="true"
     inkscape:deskcolor="#d1d1d1"
     inkscape:zoom="0.72736244"
     inkscape:cx="281.15282"
     inkscape:cy="512.81174"
     inkscape:window-width="1920"
     inkscape:window-height="992"
     inkscape:window-x="-8"
     inkscape:window-y="-8"
     inkscape:window-maximized="1"
     inkscape:current-layer="svg50" />
  <g
     id="g55"
     transform="translate(8.8002845)" />
  <g
     id="g56"
     transform="translate(-4.7189863,-11.409738)">
    <path
       fill="#ca4745"
       d="m 649.28259,93.813924 c 5.77,-1.93 11.4,-3.5 12.5,-3.5 1.11,0 2,0.67 2,1.5 0,0.82 -1.35,7.35 -6,27.500006 l -8,-7 -6,5.5 c -3.3,3.03 -8.25,6.62 -11,8 -2.75,1.38 -7.7,2.95 -11,3.5 -3.3,0.55 -14.33,1 -24.5,1 -16.83,0 -18.77,0.18 -21.5,2 -1.65,1.1 -3.9,3.35 -5,5 -1.26,1.89 -2,4.67 -2,7.5 0,2.83 0.74,5.61 2,7.5 1.1,1.65 3.35,3.68 5,4.5 1.65,0.82 5.02,1.73 7.5,2 2.48,0.27 6.3,1.4 8.5,2.5 2.2,1.1 5.12,3.12 6.5,4.5 1.38,1.38 3.4,4.3 4.5,6.5 1.33,2.67 2,6 2,10 0,4 -0.67,7.33 -2,10 -1.1,2.2 -3.58,5.35 -5.5,7 -1.92,1.65 -5.08,3.68 -7,4.5 -2.95,1.26 -10.94,1.5 -50.5,1.5 -44.17,0 -47.96908,-0.03 -53.8125,2.5625 -5.6575,2.51 -7.1475,6.3975 -14.1875,13.4375 -7.5,7.5 -7.97,8.22 -7.5,11.5 0.3,2.07 -0.11,4.72 -1,6.5 -0.83,1.65 -2.85,3.68 -4.5,4.5 -1.65,0.82 -4.12,1.27 -5.5,1 -2.13,-0.43 -3.6,0.75 -10,8 -5.61,6.36 -9.01,9.25 -13.5,11.5 -3.3,1.65 -8.25,3.45 -11,4 -2.75,0.55 -13.33,1 -42,1 l -3,3 c -2.33,2.33 -3.89,3 -7,3 -2.5,0 -4.94,-0.75 -6.5,-2 -1.38,-1.1 -2.95,-3.35 -3.5,-5 -0.67,-2 -0.67,-4.17 0,-6.5 0.59,-2.06 2.23851,-4.32223 4,-5.5 1.64851,-1.10223 4.12,-2 5.5,-2 1.38,0 3.85,0.68 5.5,1.5 1.65,0.82 3.23,2.18 3.5,3 0.43,1.29 3.53,1.43 22.5,1 20.77,-0.47 19.01297,0.60528 27.5,-3 4.79236,-2.03579 7.15,-4.4 12,-10 4.66,-5.37 6.36,-8.07 6,-9.5 -0.27,-1.1 -0.27,-3.35 0,-5 0.27,-1.65 1.62,-4.12 3,-5.5 1.83,-1.83 3.57,-2.5 6.5,-2.5 3.71,0 4.55,-0.58 11.5,-8 5.76,-6.15 9.4475,-10.1275 14.4375,-13.875 4.205,-3.4 8.7625,-4.575 12.0625,-5.125 3.37,-0.56 25.5,-1 50.5,-1 37.56,0 44.97,-0.23 47.5,-1.5 1.65,-0.82 3.9,-2.85 5,-4.5 1.33,-2 2,-4.67 2,-8 0,-2.89 -0.63,-5.84 -1.5,-7 -0.83,-1.1 -2.85,-3.12 -4.5,-4.5 -1.85,-1.54 -4.73,-2.69 -7.5,-3 -2.48,-0.27 -6.52,-1.4 -9,-2.5 -2.48,-1.1 -5.85,-3.57 -7.5,-5.5 -1.65,-1.93 -3.673,-5.519 -4.5,-8 -0.923,-2.769 -1.31042,-6.42004 -1,-9.5 0.32958,-3.27004 1.53875,-6.56084 3.5,-9.5 1.64875,-2.47084 3.6202,-10.15084 12,-10.5 l 24,-1 c 20.41,-0.85 24.67,-1.3 28.5,-3 2.48,-1.1 6.75,-4.03 9.5,-6.5 2.75,-2.47 5,-4.95 5,-5.5 0,-0.55 -1.58,-2.57 -3.5,-4.50001 -2.67,-2.669996 -3.14,-3.619996 -2,-3.999996 0.83,-0.28 6.23,-2.07 12,-4 z"
       fill-rule="evenodd"
       id="path27"
       sodipodi:nodetypes="ssscccssssssssssscscsssssccscccscsscccsssccaccssscccsccscccssssssccssccs" />
    <path
       fill="#203359"
       d="m 210.71899,165.81393 c 2.50873,-0.15046 303.68908,-0.0327 306.7102,0.19189 2.56021,0.19034 7.37344,1.94703 9.37155,2.93827 1.68927,0.83801 5.69159,3.67688 7.41825,5.36984 2.73,2.34 4.05,4.76 6,11 1.38,4.4 2.54419,7.52289 2.54419,7.79289 0,0.27 -0.9,0.5 -2,0.5 -1.59,0 -2.45419,-0.62289 -4.04419,-5.79289 -1.1,-3.57 -1.73493,-4.87694 -3.69873,-6.58861 -2.02518,-1.76515 -9.62127,-1.73139 -26.30127,-1.41139 -25.06,0.48 -26.2,0.59 -31.5,3 -4.72,2.15 -7.76,5.04 -21.5,20.5 -8.8,9.9 -19.6,22.27 -24,27.5 -4.4,5.23 -9.8,10.62 -12,12 -2.2,1.38 -5.8,3.18 -8,4 -3.45,1.29 -16.67,1.5 -96,1.5 -80.89,0 -92.06,0.18 -92.5,1.5 -0.27,0.82 -0.73,7.57 -1,15 -0.3,8.21 -0.11,14.09 0.5,15 0.88,1.32 13.17,1.5 100.5,1.5 85.78,0 100.12,-0.21 104,-1.5 2.48,-0.82 6.08,-2.85 8,-4.5 1.92,-1.65 14.3,-15.38 27.5,-30.5 13.2,-15.12 23.15643,-30.56364 28.0026,-33.27297 3.82076,-2.13606 12.11352,-1.17678 58.11352,-1.17678 l 1.38388,11.44975 c 0.27,3.57 0.95,13.48 1.5,22 0.55,8.52 1.67,24.95 2.5,36.5 0.83,11.55 1.27,25.05 0.5,39 l -3.5,1.5 c -1.92,0.82 -8,2.18 -13.5,3 -6.62,0.99 -17.61,1.5 -55,1.5 l 0.5,-2.5 c 0.27,-1.38 0.73,-3.18 1,-4 0.27,-0.82 0.0487,-3.97977 -0.5,-7 -0.72126,-3.96977 -1.97946,-6.61047 -4.5,-9.5 -1.91946,-2.20047 -5.07795,-5.12286 -7,-6.5 -1.95795,-1.40286 -5.47,-2.72 -8,-3 -2.53,-0.28 -6.91027,0.15901 -10,1 -3.67027,0.99901 -6.67274,2.66726 -9,5 -1.92274,1.92727 -4.17217,4.84891 -5,6.5 -0.98217,1.95891 -1.5,5.94 -1.5,20 h -83 c -82.5,0 -83,-0.01 -82.5,-2 0.27,-1.1 0.73,-2.9 1,-4 0.27,-1.1 0.05,-4.48 -0.5,-7.5 -0.72,-3.97 -1.98,-6.61 -4.5,-9.5 -1.92,-2.2 -5.08,-5.12 -7,-6.5 -2.17,-1.55 -5.4,-2.69 -8.5,-3 -3.08,-0.31 -6.73,0.08 -9.5,1 -2.48,0.82 -6.08,2.62 -8,4 -2.15,1.54 -4.46,4.62 -6,8 -2.14,4.71 -2.43,6.51 -1.5,19.5 l -25.5,-0.5 c -17.49,-0.34 -27.54,-0.97 -32,-2 -3.57,-0.82 -7.4,-1.95 -8.5,-2.5 -1.96,-0.98 -2,-2 -2,-54 0,-43.56 0.27,-54.16 1.5,-59.5 0.82,-3.57 2.62,-8.75 4,-11.5 1.38,-2.75 3.62,-6.57 5,-8.5 1.38,-1.93 4.98,-5.3 8,-7.5 3.02,-2.2 8.2,-5.35 11.5,-7 3.3,-1.65 9.00593,-3.63704 12.5,-4.5 3.56557,-0.88062 5.35582,-1.75145 9.5,-2 z m -22,14.5 c -2.24371,0.32902 -5.8,1.9 -8,3 -2.2,1.1 -5.8,4.02 -8,6.5 -2.2,2.48 -4.9,6.98 -6,10 -1.1,3.02 -2.23,7.75 -2.5,10.5 l -0.5,5 c 4.65,-4.65 7.57,-6.68 9.5,-7.5 3,-1.28 20.28,0.0785 120.5,-0.78146 74.62,-0.64 112.90858,1.42183 116.27454,-0.593 0.83,-0.55 7.99546,-8.85554 13.22546,-14.62554 5.23,-5.77 9.5,-10.95 9.5,-11.5 0,-0.66 -40.67,-1 -120,-1 -76.67,0 -119.63554,0.36 -124,1 z m 289.74127,92.9575 c -1.67824,1.97068 -4.81693,5.13684 -7.54458,9.55818 12.05461,-0.037 40.76615,-0.7082 49.30331,-1.01566 17.38,0.47 18.77,0.65 23,3 2.48,1.38 5.14984,2.35839 5.41984,2.08839 0.27,-0.27 0.28516,-9.41339 -0.54484,-20.96339 -0.83,-11.55 -0.855,-16.18 -1.875,-19.625 -1.2325,-2.0825 -3.38198,-4.11035 -22.48982,-3.82322 -5.58359,0.0839 -10.81125,0.26133 -19.82275,0.61823 -5.18094,5.40016 -8.21478,9.92847 -14.48233,17.28815 z"
       fill-rule="evenodd"
       id="path28"
       sodipodi:nodetypes="sssccsscscccsscscccscsssccsscccccsssssssscscsccccccccccsscsssssssssscccccssssscccsscscss"
       transform="translate(8.8002845)" />
    <path
       fill="#213459"
       d="m 446.87524,301.47018 c 3.77044,-2.82941 6.56611,-5.20109 13.15625,-4.733 5.93986,0.42191 7.5617,1.80747 10.53125,4.358 1.92045,1.64947 4.027,4.16117 5.125,5.8125 1.442,2.16867 2.78125,5.7325 2.78125,10.0625 0,5 -0.80996,6.53295 -3.3125,10.28125 -2.03746,3.0517 -3.98005,4.89269 -7.03125,6.25 -2.47881,1.10269 -5.9875,1.8125 -9.0625,1.8125 -2.2,0 -6.14375,-0.9 -8.34375,-2 -2.2,-1.1 -5.12,-3.35 -6.5,-5 -1.38,-1.65 -2.79375,-3.39375 -3.34375,-5.59375 -0.55,-2.2 -1.11375,-5.91375 -0.84375,-7.84375 0.27,-1.93 0.80625,-5.28875 1.90625,-7.21875 1.1,-1.93 2.73794,-4.53691 4.9375,-6.1875 z"
       fill-rule="evenodd"
       id="path32"
       sodipodi:nodetypes="ssssssssssssss"
       transform="translate(8.8002845)" />
    <path
       fill="#213459"
       d="m 236.66342,301.45424 c 3.77044,-2.82941 6.56611,-5.20109 13.15625,-4.733 5.93986,0.42191 7.5617,1.80747 10.53125,4.358 1.92045,1.64947 4.027,4.16117 5.125,5.8125 1.442,2.16867 2.78125,5.7325 2.78125,10.0625 0,5 -0.80996,6.53295 -3.3125,10.28125 -2.03746,3.0517 -3.98005,4.89269 -7.03125,6.25 -2.47881,1.10269 -5.9875,1.8125 -9.0625,1.8125 -2.2,0 -6.14375,-0.9 -8.34375,-2 -2.2,-1.1 -5.12,-3.35 -6.5,-5 -1.38,-1.65 -2.79375,-3.39375 -3.34375,-5.59375 -0.55,-2.2 -1.11375,-5.91375 -0.84375,-7.84375 0.27,-1.93 0.80625,-5.28875 1.90625,-7.21875 1.1,-1.93 2.73794,-4.53691 4.9375,-6.1875 z"
       fill-rule="evenodd"
       id="path32-0"
       sodipodi:nodetypes="ssssssssssssss"
       transform="translate(8.8002845)" />
    <path
       fill="#cddcf1"
       d="m 67.718987,379.31393 v 0 c 0,0 0.23,0 0.5,0 0.27,0 0.73,0 1.5,0 v 0 c 0,0 -0.45,0.45 -1,1 -0.67,0.67 -1,0.67 -1,-1 z"
       fill-rule="evenodd"
       id="path45" />
    <text
       xml:space="preserve"
       style="font-style:normal;font-variant:normal;font-weight:normal;font-stretch:normal;font-size:90.2864px;line-height:1.25;font-family:Rubik;-inkscape-font-specification:'Rubik, Normal';font-variant-ligatures:normal;font-variant-caps:normal;font-variant-numeric:normal;font-variant-east-asian:normal;fill:#203359;fill-opacity:1"
       x="56.435997"
       y="415.35114"
       id="text52"><tspan
         sodipodi:role="line"
         id="tspan52"
         x="56.435997"
         y="415.35114"
         style="font-style:normal;font-variant:normal;font-weight:normal;font-stretch:normal;font-size:90.2864px;font-family:Rubik;-inkscape-font-specification:'Rubik, Normal';font-variant-ligatures:normal;font-variant-caps:normal;font-variant-numeric:normal;font-variant-east-asian:normal;fill:#203359;fill-opacity:1">route<tspan
   style="font-style:normal;font-variant:normal;font-weight:bold;font-stretch:normal;font-size:90.2864px;font-family:Rubik;-inkscape-font-specification:'Rubik, Bold';font-variant-ligatures:normal;font-variant-caps:normal;font-variant-numeric:normal;font-variant-east-asian:normal;fill:#203359;fill-opacity:1"
   id="tspan53">mapster</tspan></tspan></text>
  </g>
  <text
     xml:space="preserve"
     style="font-size:90.2864px;line-height:1.25;font-family:Rubik;-inkscape-font-specification:'Rubik, Normal'"
     x="1029.5475"
     y="597.50525"
     id="text55"><tspan
       sodipodi:role="line"
       id="tspan55"
       x="1029.5475"
       y="597.50525"></tspan></text>
</svg>
